<?xml version="1.0" encoding="UTF-8"?>
<svg id="Layer_1" data-name="Layer 1" xmlns="http://www.w3.org/2000/svg" version="1.1" viewBox="0 0 285.21 326.22">
  <defs>
    <style>
      .cls-1 {
        fill: #652f89;
      }

      .cls-1, .cls-2, .cls-3, .cls-4 {
        stroke-width: 0px;
      }

      .cls-5 {
        font-family: NotoSansGeorgian-Bold, 'Noto Sans Georgian';
        font-size: 42.68px;
        font-weight: 700;
      }

      .cls-5, .cls-2, .cls-3 {
        fill: #652d89;
      }

      .cls-3 {
        fill-rule: evenodd;
      }

      .cls-4 {
        fill: #fff;
      }
    </style>
  </defs>
  <path class="cls-3" d="M158.35,226.25c1.71,0,4.54-.06,5.61-1.24.92-1.01.93-3.13.94-4.4v-10.27c-1.86-.51-3.75-.9-5.66-1.17-2.04-.28-4.1-.43-6.16-.42-2.37,0-4.88.33-7.05,1.35-1.72.81-3.17,1.97-4.15,3.61-.99,1.67-1.4,3.54-1.4,5.47v14.38c0,1.94.4,3.82,1.4,5.5.98,1.64,2.42,2.81,4.15,3.62,2.16,1.01,4.68,1.31,7.05,1.31,1.36,0,2.72-.04,4.07-.15,1.3-.1,2.59-.24,3.88-.42.96-.13,1.92-.28,2.88-.45h.05c-.11-1.41-.37-4.14-1.55-5.05-1-.77-2.96-.62-4.13-.53l-3.19.26c-.67.03-1.34.07-2.01.07-1.11,0-2.37-.16-3.34-.72-.82-.45-1.43-1.11-1.77-1.98-.33-.86-.45-1.79-.43-2.7v-11.73c-.01-.93.1-1.87.43-2.73.34-.89.94-1.58,1.74-2.08.98-.61,2.23-.77,3.37-.77.5,0,1,0,1.51.02.5.02,1.01.05,1.52.09.6.06,1.2.13,1.81.2l.44.05v10.89ZM39.32,232.81v9.88c1.86.51,3.75.9,5.66,1.17,2.05.28,4.12.42,6.18.41,2.37,0,4.89-.33,7.05-1.34,1.72-.81,3.16-1.97,4.13-3.62.99-1.67,1.39-3.53,1.39-5.47v-1.8c0-2.47-.3-5.61-1.73-7.71-1.73-2.55-4.81-3.3-7.73-3.41l-.49-.02v-2.68h8.6c0-1.53-.06-4.02-1.1-4.96-.9-.81-2.8-.83-3.93-.84h-3.57v-3.39h-7.04v3.39h-6.16c0,1.53.06,4.02,1.1,4.96.9.81,2.8.83,3.93.84h1.13v7.91h4.25c1.52,0,3.34.25,4.44,1.43,1.06,1.14,1.27,3,1.27,4.49v.41c0,.93-.13,1.86-.46,2.72-.32.91-.93,1.61-1.75,2.11-.97.6-2.22.76-3.34.77-1.54.01-3.86-.06-5.28-.45l-.02-.36c-.04-.64-.1-1.32-.27-1.94-.13-.46-.32-.89-.64-1.25-1.08-1.19-3.92-1.25-5.64-1.25M67.89,218.39c.76,4.87,1.19,6.68,6.85,5.84,2.08-.31,4.23-.96,6.22.11.81.44,1.42,1.07,1.75,1.93.34.9.46,1.9.46,2.85v3.15c0,.95-.11,1.95-.46,2.84-.33.87-.94,1.51-1.75,1.93-.96.54-2.2.67-3.29.67-1.95,0-3.78-.65-5.68-.66-.63,0-1.25.08-1.86.23-.45.11-.88.28-1.23.6-1.06.97-1.11,3.56-1.11,5.09,1.56.32,3.13.58,4.71.75,1.71.19,3.43.28,5.15.27,2.38,0,4.98-.31,7.16-1.35,1.69-.8,3.12-1.96,4.05-3.6.95-1.69,1.31-3.56,1.31-5.48v-5.73c0-1.92-.36-3.8-1.31-5.48-.93-1.64-2.36-2.8-4.05-3.61-2.18-1.04-4.77-1.34-7.16-1.35-1.72,0-3.44.08-5.15.27-1.4.16-2.8.38-4.21.65l-.43.07ZM136.55,243.99v-16.15c0-1.93-.4-3.79-1.39-5.46-.98-1.65-2.42-2.82-4.14-3.63-2.16-1.02-4.68-1.35-7.05-1.35-3.01,0-5.15.28-8.03.89-3.04-.51-6.02-.9-9.11-.89-2.37,0-4.88.33-7.05,1.35-1.73.81-3.17,1.99-4.15,3.63-.99,1.67-1.39,3.54-1.39,5.46v16.15c1.83,0,4.87-.06,6.03-1.33.99-1.08,1-3.35,1.01-4.71v-8.71c0-.93.12-1.87.45-2.74.33-.89.92-1.58,1.73-2.08.98-.61,2.24-.77,3.37-.77,1.86,0,3.45.14,5.29.36v11.35c1.71,0,4.54-.06,5.61-1.24.75-.83.87-2.3.92-3.37.1-2.22.03-4.52.03-6.74,1.84-.22,3.43-.36,5.29-.36,1.13,0,2.39.16,3.37.77.8.5,1.39,1.2,1.73,2.08.33.88.45,1.81.45,2.74v8.7c.01,1.38.03,3.64,1.01,4.72,1.16,1.28,4.2,1.33,6.03,1.33M168.81,233.79v8.85c1.74.48,3.51.84,5.29,1.09,3.26.45,6.97.62,10.22.02,1.15-.21,2.36-.54,3.38-1.13.8-.46,1.51-1.04,2.01-1.82,1.98-3.03,1.33-7.23,1.33-10.67,0-1.11,0-2.27-.1-3.38-.08-.8-.25-1.62-.58-2.35-.31-.68-.79-1.23-1.37-1.68-.77-.6-1.74-1.04-2.65-1.38-1.44-.52-2.95-.92-4.44-1.27-1.04-.24-2.08-.5-3.11-.79-.61-.18-1.31-.44-1.81-.84-.3-.24-.52-.55-.66-.9h-6.73c.1,1.18.27,2.38.8,3.46.34.67.84,1.23,1.44,1.67.76.56,1.68.96,2.57,1.27,1.3.45,2.68.78,4.03,1.06,1.08.23,2.2.47,3.26.8.63.2,1.36.49,1.86.93.44.38.71.88.81,1.45.11.61.12,1.29.11,1.91,0,2.05.46,6.24-1,7.76-.43.45-1.1.61-1.69.71-2.03.37-4.81.13-6.84-.16-.06-1.1-.1-2.6-.87-3.45-1-1.11-3.65-1.16-5.27-1.16M204.74,208.9h-6.81c.07,2.22.78,4.24,2.92,5.28.69.33,1.58.57,2.32.75.52.13,1.45.38,1.78.83.68,1.07.8,3.31.75,4l-.45.06c-1.02.14-2.03.37-3,.71-1.5.53-2.96,1.28-4.11,2.39-.99.95-1.78,2.04-2.28,3.32-.48,1.22-.7,2.51-.7,3.82v3.65c0,1.31.23,2.59.71,3.82.49,1.28,1.29,2.38,2.28,3.32,1.16,1.11,2.61,1.86,4.11,2.38,1.97.69,4.17.91,6.25.91s4.29-.21,6.26-.9c1.49-.52,2.94-1.28,4.09-2.39.98-.95,1.79-2.04,2.29-3.32.47-1.23.7-2.5.7-3.82v-3.65c0-1.31-.23-2.59-.7-3.82-.49-1.28-1.3-2.37-2.29-3.32-1.15-1.11-2.59-1.86-4.09-2.38-.51-.18-1-.31-1.52-.45,0-1.64.09-3.97-.38-5.51-.23-.75-.76-1.23-1.47-1.53-.7-.29-1.88-.5-2.62-.65-.89-.18-2-.47-2.73-1.03-.39-.3-.7-.66-.92-1.11-.21-.43-.33-.89-.37-1.36M214.79,233.01c0,1.45-.45,2.75-1.57,3.69-2.1,1.77-7.39,1.77-9.48,0-1.11-.95-1.55-2.25-1.55-3.69v-2.25c0-1.43.44-2.74,1.55-3.68,2.13-1.81,7.34-1.8,9.48,0,1.12.94,1.57,2.24,1.57,3.68v2.25ZM225.86,243.98c1.83,0,4.88-.05,6.04-1.33.99-1.09,1-3.34,1-4.71.02-3.14-.01-6.27-.01-9.41,0-1.44.45-2.74,1.57-3.69,1.26-1.07,3.14-1.31,4.73-1.31s3.46.25,4.73,1.31c1.13.95,1.57,2.25,1.57,3.69v9.41c.01,1.38.03,3.64,1.01,4.72,1.16,1.28,4.2,1.33,6.03,1.33v-16.15c0-1.31-.24-2.59-.72-3.82-.49-1.28-1.28-2.38-2.26-3.32-1.15-1.1-2.62-1.86-4.11-2.38-1.97-.69-4.17-.91-6.25-.91s-4.28.22-6.26.91c-1.49.52-2.94,1.28-4.09,2.38-.99.95-1.78,2.05-2.28,3.33-.48,1.22-.71,2.51-.71,3.82v16.15Z"/>
  <text class="cls-5" transform="translate(37.54 287.11)"><tspan x="0" y="0">სკოლაში</tspan></text>
  <g>
    <path class="cls-1" d="M149.25,82.26c2.25-6.57,6.57-13.47,14.66-18.5,1.6-1,3.36-1.92,5.27-2.75,6.87-2.99,15.81-4.81,27.46-4.66,0,0-5.38,6.55-5.83,19,0,0,4.35,7.36,4.18,16.06,0,.01,0,.02,0,.03,0,.02,0,.04,0,.06-.03,12.52-10.71,22.66-23.88,22.66-10.58,0-17.19-6.02-20.39-12.37-3.47-6.89-3.02-14.35-1.46-19.52Z"/>
    <path class="cls-1" d="M144.41,82.26c-2.25-6.57-6.57-13.47-14.66-18.5-1.6-1-3.36-1.92-5.27-2.75-6.87-2.99-15.81-4.81-27.46-4.66,0,0,5.38,6.55,5.83,19,0,0-4.35,7.36-4.18,16.06,0,.01,0,.02,0,.03,0,.02,0,.04,0,.06.03,12.52,10.71,22.66,23.88,22.66,10.58,0,17.19-6.02,20.39-12.37,3.47-6.89,3.02-14.35,1.46-19.52Z"/>
    <path class="cls-1" d="M203.21,37.73c-.46-.22-1.1-.48-2.25-.7-13.33-2.57-49.26-8.46-55.51-9.75-1.26-.26-2.71-.17-3.96.15-7.98,2.07-52.59,11.46-52.98,11.6-.22.09-.65.31-.59.82.09.52,1.02.81,1.58.93,1.86.42,2.23.5,2.23.5.68,6.48,1.14,15.61.56,22.09-.55,6.08-.87,12.18-1.52,18.25-.15,1.39.45,3.32-1.21,4.16-1.41.72-1.68,1.9-1.88,3.12-.26,1.62-.24,3.28-.42,4.91-.1.92-.14,1.92-.54,2.72-1.8,3.58-3.58,7.19-5.65,10.62-2.37,3.92-4.57,7.84-4.9,12.54-.05.68-.23,1.35-.36,2.02.24.09.19.07.43.17.17-.25.33-.51.59-.9-.09,2.95,2.8.62,3.46,2.32.54-3.01,1.05-5.84,1.56-8.68.13.02.25.04.38.06-.5,3.31-.99,6.61-1.49,9.92.18.04.36.07.54.11.11-.18.27-.35.31-.54.18-.76.33-1.53.49-2.29-.06,1.6.42,2.73,2.24,2.85,2.6.17.9-2.18,1.86-3.13.19.99.36,1.87.54,2.82,1.31-.59,1.7-1.47,1.63-2.74-.21-4.02.54-7.88,1.63-11.76,1.15-4.08,2.59-8.12,2.33-12.51-.11-1.9.5-3.84.6-5.76.1-1.94,1.1-4.1-1.03-5.67-.16-.12-.11-.59-.08-.89.5-5.58,1.02-11.16,1.51-16.74.19-2.17.33-4.35.42-6.53.13-3.38.36-6.77.25-10.15-.11-3.3-.59-6.59-.94-10.17,7.7,2.01,15.21,3.97,23.01,6.01-1.03,3.6-2.01,7.07-2.97,10.42.15.17,14.55,4.92,16.16,5.92,5.86-3.94,11.12-5.33,17.58-5.26,6.49.06,12.41,1.81,17.63,5.91,1.76-1.06,13.76-5.86,13.76-5.86-1.17-4.12-2.8-9.24-3.93-13.03,7.54-1.59,18.9-4.04,26.98-6.11,1.01-.26,1.55-.46,1.97-.66.45-.22.44-.86,0-1.07Z"/>
    <path class="cls-1" d="M177.24,130.78h0s-1.83-6.73-5.87-10.6c0,0-14.79.8-25.27-12.5-10.48,13.3-25.27,12.5-25.27,12.5-4.04,3.87-5.87,10.6-5.87,10.6h0c-4.27,11.14-6.68,34.92,31.14,63.88,37.82-28.96,35.41-52.75,31.14-63.88Z"/>
    <path class="cls-1" d="M177.55,119.41s7.37-1.22,10.32-3.83c0,0,28.21,28.12-22.6,72.1,0,0,39.45-44.16,12.28-68.27Z"/>
    <path class="cls-1" d="M115.32,118.76s-6.72-1.94-9.67-4.55c0,0-29.69,28.99,21.13,72.97,0,0-38.63-44.31-11.45-68.42Z"/>
    <path class="cls-4" d="M163.75,130.43c-9.44,10.76-17.7,0-17.7,0,0,0-8.25,10.76-17.7,0-.97,4.69-14.31,24.84,17.7,50.07,31.71-25.23,18.67-45.38,17.7-50.07Z"/>
    <path class="cls-2" d="M155.18,159.69c0,1.42-.36,2.72-1.08,3.89-.72,1.17-1.79,2.1-3.2,2.79-1.41.69-3.2,1.03-5.35,1.03-1.07,0-2.03-.05-2.9-.16-.87-.11-1.67-.27-2.42-.48s-1.46-.49-2.15-.82v-4.91c1.16.57,2.42,1.03,3.77,1.37,1.35.34,2.63.52,3.84.52.93,0,1.68-.12,2.28-.36.59-.24,1.04-.56,1.33-.98.3-.41.44-.88.44-1.4,0-.62-.17-1.13-.5-1.53-.33-.4-.87-.8-1.6-1.19-.73-.39-1.74-.85-3.02-1.37-1.35-.57-2.5-1.18-3.43-1.83-.94-.65-1.65-1.45-2.15-2.4-.5-.95-.75-2.12-.75-3.52,0-1.52.38-2.8,1.14-3.84.76-1.04,1.81-1.84,3.16-2.38,1.35-.55,2.92-.82,4.69-.82,1.56,0,2.98.16,4.25.48,1.27.32,2.4.72,3.4,1.19l-1.67,4.3c-1-.45-2.02-.82-3.08-1.1-1.05-.28-2.07-.43-3.04-.43-.78,0-1.43.1-1.94.3-.51.2-.89.49-1.14.85-.25.37-.37.79-.37,1.26,0,.59.17,1.09.5,1.49.33.4.88.81,1.64,1.21.76.4,1.79.88,3.09,1.42,1.33.55,2.45,1.14,3.38,1.8.93.65,1.64,1.42,2.13,2.29.5.88.75,1.98.75,3.31Z"/>
    <path class="cls-4" d="M146.1,100.55l-7.42,8.98c0,5.24,7.41,10.75,7.41,10.75,0,0,7.43-5.51,7.43-10.75l-7.42-8.98Z"/>
    <path class="cls-4" d="M140.09,92.02l-1.73-.3c-.13-.02-.26-.01-.38.01.06-1.14.02-2.27-.16-3.37.12,0,.24,0,.37-.03l1.69-.48c.58-.17.92-.78.76-1.35l-.5-1.71c-.17-.58-.78-.92-1.36-.75l-1.7.48c-.12.03-.22.1-.32.16-.44-1.04-.99-2.03-1.65-2.96.11-.05.21-.1.31-.18l1.31-1.17c.45-.4.49-1.09.08-1.54l-1.21-1.33c-.4-.45-1.1-.48-1.55-.08l-1.3,1.17c-.09.08-.15.18-.2.27-.77-.66-1.6-1.26-2.52-1.79-.09-.05-.19-.09-.29-.14.07-.09.15-.18.19-.29l.66-1.62c.22-.56-.05-1.2-.61-1.42l-1.67-.67c-.56-.23-1.21.04-1.44.6l-.66,1.62c-.05.12-.06.23-.07.35-.74-.2-1.5-.36-2.25-.45.04-.11.07-.22.07-.34v-1.74c0-.6-.49-1.09-1.11-1.09h-1.79c-.61,0-1.11.49-1.11,1.09v1.74c0,.13.03.25.07.37-1.13.14-2.25.39-3.32.77,0-.13-.04-.25-.1-.37l-.77-1.57c-.27-.54-.93-.77-1.48-.5l-1.62.78c-.55.26-.77.92-.51,1.46l.77,1.57c.06.12.15.22.25.32-.95.61-1.83,1.32-2.63,2.14-.07-.12-.16-.23-.27-.32l-1.39-1.07c-.47-.37-1.17-.29-1.54.19l-1.11,1.4c-.37.47-.29,1.17.19,1.54l1.39,1.07c.12.09.25.16.38.19-.04.07-.09.13-.13.2-.54.93-.97,1.88-1.3,2.86-.12-.08-.25-.14-.4-.17l-1.72-.36c-.59-.12-1.19.25-1.31.84l-.37,1.75c-.12.58.25,1.17.85,1.29l1.72.37c.16.03.32.02.47-.01-.1,1.14-.07,2.28.08,3.41-.16-.03-.32-.04-.49,0l-1.71.42c-.59.14-.95.74-.81,1.32l.43,1.73c.15.58.75.95,1.34.8l1.71-.42c.17-.04.3-.12.43-.22.41,1.06.95,2.08,1.58,3.04-.16.04-.32.1-.45.21l-1.35,1.12c-.46.39-.53,1.08-.14,1.54l1.16,1.37c.39.46,1.09.52,1.55.13l1.35-1.12c.13-.11.23-.25.29-.41.82.77,1.74,1.46,2.75,2.06-.13.1-.24.23-.31.39l-.72,1.59c-.24.55,0,1.2.56,1.44l1.65.73c.55.24,1.21,0,1.46-.55l.72-1.59c.07-.16.09-.32.08-.48,1.12.35,2.25.56,3.39.65-.07.14-.11.3-.11.47l.06,1.74c.02.6.53,1.08,1.14,1.06l1.79-.07c.61-.02,1.09-.53,1.07-1.12l-.06-1.74c0-.17-.05-.31-.12-.46,1.13-.17,2.25-.46,3.32-.86,0,.15.05.3.12.43l.83,1.54c.29.53.96.73,1.49.45l1.59-.84c.53-.28.74-.95.46-1.48l-.83-1.54c-.07-.14-.17-.25-.29-.34.93-.63,1.8-1.37,2.59-2.2.07.12.17.23.29.31l1.42,1.02c.49.35,1.19.25,1.54-.24l1.06-1.45c.36-.48.25-1.17-.25-1.53l-1.42-1.02c-.12-.08-.24-.14-.37-.17.57-1,1.02-2.05,1.34-3.11.11.07.23.12.37.14l1.73.3c.6.1,1.18-.29,1.29-.88l.31-1.76c.11-.59-.3-1.16-.89-1.27ZM124.65,86.81c-.96-.63-2.15-.93-3.41-.73-.7.11-1.33.37-1.89.74l-3.67-3.67c1.72-1.41,3.92-2.26,6.32-2.26s4.59.85,6.32,2.26l-3.67,3.67ZM124.31,92.55c-.45.62-1.11,1.03-1.87,1.15-1.56.25-3.03-.85-3.26-2.37-.25-1.55.82-3.02,2.37-3.27.15-.03.3-.04.45-.04,1.39,0,2.6,1.04,2.81,2.41.12.75-.06,1.5-.51,2.12ZM117.94,88.24c-.63.97-.94,2.17-.74,3.4.11.7.37,1.33.73,1.89l-3.67,3.67c-1.41-1.72-2.26-3.92-2.26-6.32s.85-4.59,2.26-6.31l3.68,3.68ZM119.35,94.95c.76.5,1.67.79,2.64.79.25,0,.51-.02.77-.06.69-.11,1.32-.37,1.88-.73l3.67,3.67c-1.72,1.41-3.92,2.26-6.32,2.26s-4.59-.85-6.32-2.26l3.66-3.66ZM126.06,93.52c.66-1.01.93-2.2.74-3.4-.11-.7-.37-1.33-.73-1.89l3.67-3.66c1.41,1.72,2.26,3.92,2.26,6.31s-.85,4.59-2.26,6.32l-3.68-3.67Z"/>
    <path class="cls-4" d="M190.45,92.02l-1.73-.3c-.13-.02-.26-.01-.38.01.06-1.14.02-2.27-.16-3.37.12,0,.24,0,.37-.03l1.69-.48c.58-.17.92-.78.76-1.35l-.5-1.71c-.17-.58-.78-.92-1.36-.75l-1.7.48c-.12.03-.22.1-.32.16-.44-1.04-.99-2.03-1.65-2.96.11-.05.21-.1.31-.18l1.31-1.17c.45-.4.49-1.09.08-1.54l-1.21-1.33c-.4-.45-1.1-.48-1.55-.08l-1.3,1.17c-.09.08-.15.18-.2.27-.77-.66-1.6-1.26-2.52-1.79-.09-.05-.19-.09-.29-.14.07-.09.15-.18.19-.29l.66-1.62c.22-.56-.05-1.2-.61-1.42l-1.67-.67c-.56-.23-1.21.04-1.44.6l-.66,1.62c-.05.12-.06.23-.07.35-.74-.2-1.5-.36-2.25-.45.04-.11.07-.22.07-.34v-1.74c0-.6-.49-1.09-1.11-1.09h-1.79c-.61,0-1.11.49-1.11,1.09v1.74c0,.13.03.25.07.37-1.13.14-2.25.39-3.32.77,0-.13-.04-.25-.1-.37l-.77-1.57c-.27-.54-.93-.77-1.48-.5l-1.62.78c-.55.26-.77.92-.51,1.46l.77,1.57c.06.12.15.22.25.32-.95.61-1.83,1.32-2.63,2.14-.07-.12-.16-.23-.27-.32l-1.39-1.07c-.47-.37-1.17-.29-1.54.19l-1.11,1.4c-.37.47-.29,1.17.19,1.54l1.39,1.07c.12.09.25.16.38.19-.04.07-.09.13-.13.2-.54.93-.97,1.88-1.3,2.86-.12-.08-.25-.14-.4-.17l-1.72-.36c-.59-.12-1.19.25-1.31.84l-.37,1.75c-.12.58.25,1.17.85,1.29l1.72.37c.16.03.32.02.47-.01-.1,1.14-.07,2.28.08,3.41-.16-.03-.32-.04-.49,0l-1.71.42c-.59.14-.95.74-.81,1.32l.43,1.73c.15.58.75.95,1.34.8l1.71-.42c.17-.04.3-.12.43-.22.41,1.06.95,2.08,1.58,3.04-.16.04-.32.1-.45.21l-1.35,1.12c-.46.39-.53,1.08-.14,1.54l1.16,1.37c.39.46,1.09.52,1.55.13l1.35-1.12c.13-.11.23-.25.29-.41.82.77,1.74,1.46,2.75,2.06-.13.1-.24.23-.31.39l-.72,1.59c-.24.55,0,1.2.56,1.44l1.65.73c.55.24,1.21,0,1.46-.55l.72-1.59c.07-.16.09-.32.08-.48,1.12.35,2.25.56,3.39.65-.07.14-.11.3-.11.47l.06,1.74c.02.6.53,1.08,1.14,1.06l1.79-.07c.61-.02,1.09-.53,1.07-1.12l-.06-1.74c0-.17-.05-.31-.12-.46,1.13-.17,2.25-.46,3.32-.86,0,.15.05.3.12.43l.83,1.54c.29.53.96.73,1.49.45l1.59-.84c.53-.28.74-.95.46-1.48l-.83-1.54c-.07-.14-.17-.25-.29-.34.93-.63,1.8-1.37,2.59-2.2.07.12.17.23.29.31l1.42,1.02c.49.35,1.19.25,1.54-.24l1.06-1.45c.36-.48.25-1.17-.25-1.53l-1.42-1.02c-.12-.08-.24-.14-.37-.17.57-1,1.02-2.05,1.34-3.11.11.07.23.12.37.14l1.73.3c.6.1,1.18-.29,1.29-.88l.31-1.76c.11-.59-.3-1.16-.89-1.27ZM175.01,86.81c-.96-.63-2.15-.93-3.41-.73-.7.11-1.33.37-1.89.74l-3.67-3.67c1.72-1.41,3.92-2.26,6.32-2.26s4.59.85,6.32,2.26l-3.67,3.67ZM174.67,92.55c-.45.62-1.11,1.03-1.87,1.15-1.56.25-3.03-.85-3.26-2.37-.25-1.55.82-3.02,2.37-3.27.15-.03.3-.04.45-.04,1.39,0,2.6,1.04,2.81,2.41.12.75-.06,1.5-.51,2.12ZM168.3,88.24c-.63.97-.94,2.17-.74,3.4.11.7.37,1.33.73,1.89l-3.67,3.67c-1.41-1.72-2.26-3.92-2.26-6.32s.85-4.59,2.26-6.31l3.68,3.68ZM169.7,94.95c.76.5,1.67.79,2.64.79.25,0,.51-.02.77-.06.69-.11,1.32-.37,1.88-.73l3.67,3.67c-1.72,1.41-3.92,2.26-6.32,2.26s-4.59-.85-6.32-2.26l3.66-3.66ZM176.42,93.52c.66-1.01.93-2.2.74-3.4-.11-.7-.37-1.33-.73-1.89l3.67-3.66c1.41,1.72,2.26,3.92,2.26,6.31s-.85,4.59-2.26,6.32l-3.68-3.67Z"/>
  </g>
</svg>